<?xml version="1.0" encoding="UTF-8"?>
<svg version="1.1" xmlns="http://www.w3.org/2000/svg" width="1080" height="1080">
<path d="M0 0 C1.0012088 0.12441467 1.0012088 0.12441467 2.02264404 0.25134277 C76.09120162 9.49612438 146.50400093 35.44190559 208 78 C208.62841797 78.4340918 209.25683594 78.86818359 209.90429688 79.31542969 C231.02904962 93.9810131 251.00932357 110.61344072 269 129 C271.79905411 131.81370885 274.61698892 134.60659207 277.453125 137.3828125 C283.94263818 143.76172832 290.20935786 150.12831855 295.84765625 157.2890625 C297.78086975 159.72399928 299.78361355 162.07915734 301.82348633 164.42480469 C343.26167807 212.27861051 372.82058815 272.24698457 389.23242188 333.15380859 C389.73744916 335.02645747 390.25153589 336.89669059 390.77539062 338.76416016 C397.85452458 364.04742148 402.26440121 390.79172174 404 417 C404.08467529 418.20301758 404.16935059 419.40603516 404.2565918 420.64550781 C404.9857938 431.51659843 405.20402975 442.35624143 405.1875 453.25 C405.18623108 454.12083221 405.18496216 454.99166443 405.18365479 455.8888855 C404.98914448 526.50496839 388.76164294 597.06587576 356.09228516 659.88916016 C354.87304627 662.24533795 353.67715008 664.61275891 352.48046875 666.98046875 C340.38998476 690.70949704 325.6345519 713.19922967 309 734 C308.50000488 734.6300293 308.00000977 735.26005859 307.48486328 735.90917969 C301.12527766 743.91038531 294.62718455 751.70143339 287.6328125 759.15625 C285.62800966 761.32167502 283.69225947 763.50991657 281.76953125 765.74609375 C277.57471365 770.56047113 273.08687595 775.05968581 268.5625 779.5625 C267.75490234 780.37396484 266.94730469 781.18542969 266.11523438 782.02148438 C261.23918596 786.88967453 256.23635892 791.52388076 251 796 C249.91694995 796.94935982 248.83487014 797.899828 247.75390625 798.8515625 C180.86518542 857.19841993 97.73462634 893.63302221 -18 909 C-19.52085082 909.11043657 -21.04168437 909.22111118 -22.5625 909.33203125 C-100.21717567 914.58573031 -179.01978727 898.87515086 -249 865 C-249.91120605 864.56751953 -250.82241211 864.13503906 -251.76123047 863.68945312 C-284.24082379 848.26440077 -314.52355993 828.16869311 -342 805 C-342.53302734 804.55188965 -343.06605469 804.1037793 -343.61523438 803.64208984 C-355.49421758 793.63570576 -366.86682684 783.20807637 -377.875 772.25 C-378.57665283 771.55302002 -379.27830566 770.85604004 -380.0012207 770.13793945 C-384.53755656 765.58758092 -388.8160006 760.87440339 -393 756 C-393.94959234 754.91715381 -394.90006435 753.83507819 -395.8515625 752.75390625 C-403.65304029 743.810104 -410.91166456 734.5157898 -418 725 C-418.5377002 724.28328125 -419.07540039 723.5665625 -419.62939453 722.828125 C-432.14443833 706.09626001 -442.97366411 688.40419064 -452.89746094 670.02880859 C-453.91777165 668.15131035 -454.9585725 666.28721845 -456.0078125 664.42578125 C-467.14944339 644.2851408 -475.41911651 622.68657354 -483 601 C-483.48678223 599.6078125 -483.48678223 599.6078125 -483.98339844 598.1875 C-499.83678454 552.16699819 -507.25601166 503.34877368 -507.1875 454.75 C-507.18656342 453.88082947 -507.18562683 453.01165894 -507.18466187 452.1161499 C-507.10327247 416.96956212 -503.45099801 382.16052722 -495 348 C-494.72849121 346.88302734 -494.45698242 345.76605469 -494.17724609 344.61523438 C-477.39912023 276.3168667 -445.04955887 213.92740354 -400 160 C-399.33145996 159.19393311 -399.33145996 159.19393311 -398.64941406 158.37158203 C-391.63808713 149.93825982 -384.26425188 142.03446566 -376.41210938 134.37939453 C-373.1759396 131.21819826 -369.99822388 128.00041281 -366.8359375 124.765625 C-360.72836947 118.5436006 -354.59978125 112.59882946 -347.74609375 107.1875 C-345.30103596 105.23980105 -342.93222847 103.22573823 -340.57373047 101.17480469 C-321.99664887 85.09349607 -301.27623678 71.24361925 -280 59 C-279.32565918 58.61134766 -278.65131836 58.22269531 -277.95654297 57.82226562 C-223.49798 26.61694373 -164.13430866 7.8298806 -102 0 C-100.86643066 -0.14550293 -99.73286133 -0.29100586 -98.56494141 -0.44091797 C-66.63285947 -4.29611401 -31.89427593 -4.07393666 0 0 Z " fill="#000000" transform="translate(591,95)"/>
<path d="M0 0 C5.33673309 3.05396865 7.8170484 8.28595227 10.70361328 13.49267578 C12.19856723 16.1678269 13.73569598 18.81632703 15.27734375 21.46484375 C22.27833915 33.50625537 29.17295302 45.60885803 36.07241821 57.70861816 C41.29704973 66.86922621 46.59210979 75.98677576 51.92211914 85.08642578 C55.84334238 91.79432496 59.69117194 98.54022494 63.5 105.3125 C68.46217907 114.13415168 73.5215952 122.89413271 78.63330078 131.62988281 C88.55915978 148.59487343 98.34046443 165.64258712 108.0770874 182.7166748 C113.23316483 191.75543243 118.45310312 200.75509442 123.71118164 209.73486328 C128.53872836 217.99173642 133.28548671 226.29344031 138.02050781 234.60351562 C142.63502852 242.69994218 147.29103794 250.77051457 152 258.8125 C157.03189992 267.40767635 162.00361521 276.03577751 166.9375 284.6875 C172.25476414 294.00932417 177.58307241 303.32445673 182.9375 312.625 C183.55689453 313.7070874 184.17628906 314.7891748 184.81445312 315.90405273 C187.43272389 320.46025342 190.06530373 324.98129073 192.9375 329.3828125 C196.96416938 335.57206414 200.31119522 340.72731993 199.5546875 348.44140625 C198.31784693 353.72846416 196.48514769 356.77876558 191.8970952 359.97227138 C187.67624453 362.26490723 183.93560343 362.37255263 179.20897675 362.31865788 C178.34361481 362.32477123 177.47825287 362.33088459 176.58666784 362.33718321 C173.68473959 362.35279311 170.7836459 362.33991297 167.88171387 362.3271637 C165.78113298 362.33248842 163.6805559 362.33955367 161.5799861 362.34821075 C155.80583312 362.36687449 150.03193596 362.36052016 144.25777221 362.35005772 C138.0313681 362.3430764 131.80501711 362.35905549 125.57862854 362.37205505 C114.08557471 362.39246536 102.59263464 362.39450923 91.09957291 362.38683859 C80.48230105 362.37976708 69.86505949 362.37970714 59.24778748 362.38670158 C57.82385881 362.38761291 56.39993014 362.38852367 54.97600147 362.38943387 C52.83030572 362.39081699 50.68460997 362.39220808 48.53891423 362.39362001 C28.58983614 362.40660124 8.6407682 362.41171443 -11.30831146 362.4000864 C-12.43636731 362.39942945 -12.43636731 362.39942945 -13.58721216 362.39875922 C-19.69438278 362.39515235 -25.80155325 362.3913176 -31.90872372 362.38746829 C-55.73525283 362.37261838 -79.56166733 362.38140348 -103.38818359 362.40942383 C-130.15490498 362.44084167 -156.92155852 362.45582513 -183.6882987 362.44562382 C-186.54146161 362.44458702 -189.39462454 362.4435998 -192.24778748 362.4426403 C-192.95031361 362.44239142 -193.65283974 362.44214253 -194.37665454 362.4418861 C-204.98750104 362.43844419 -215.59828767 362.44775911 -226.2091217 362.46341133 C-238.27364286 362.48116693 -250.33797885 362.4808599 -262.40250647 362.45805968 C-268.56032805 362.44689091 -274.7178748 362.44381487 -280.87568474 362.46236038 C-286.50987579 362.47911088 -292.14355116 362.47288747 -297.77770847 362.44814359 C-299.81865779 362.4432421 -301.85964827 362.44682519 -303.9005633 362.45963103 C-306.67065971 362.47576131 -309.4389618 362.46121563 -312.20897675 362.43891239 C-313.00519855 362.45090407 -313.80142035 362.46289575 -314.62177008 362.47525081 C-320.32779734 362.38115627 -323.82413552 360.70171335 -328 356.8125 C-330.75418033 353.26254216 -331.45232079 350.58896637 -331.5 346.125 C-331.5309375 345.17238281 -331.561875 344.21976563 -331.59375 343.23828125 C-330.06802222 334.43523345 -324.11430201 326.40507661 -319.625 318.8125 C-318.37700224 316.68785345 -317.12962786 314.56284064 -315.8828125 312.4375 C-315.2424707 311.34695313 -314.60212891 310.25640625 -313.94238281 309.1328125 C-310.76874389 303.7077887 -307.6349087 298.25996586 -304.5 292.8125 C-299.69184738 284.46430624 -294.86094175 276.13006573 -290 267.8125 C-282.61585107 255.17506546 -275.30509865 242.49574702 -268 229.8125 C-260.12337411 216.13695686 -252.22879908 202.47289042 -244.26708984 188.84667969 C-240.01017201 181.5562748 -235.77950419 174.25105891 -231.5625 166.9375 C-230.9427832 165.86306641 -230.32306641 164.78863281 -229.68457031 163.68164062 C-226.48539086 158.13241592 -223.29208973 152.57988349 -220.10546875 147.0234375 C-216.99244158 141.5986827 -213.86424398 136.18300862 -210.72070312 130.77587891 C-209.60594041 128.85604493 -208.49501347 126.93397646 -207.38867188 125.00927734 C-205.94090912 122.49695596 -204.4739187 119.99704056 -203 117.5 C-202.59168945 116.78328125 -202.18337891 116.0665625 -201.76269531 115.328125 C-198.9607635 110.6498792 -195.88602789 107.349557 -191 104.8125 C-186.11274914 103.65707065 -182.08610802 104.26944599 -177.625 106.5 C-171.85174336 111.58596419 -168.55748691 117.91258795 -164.875 124.5625 C-163.70299147 126.65820602 -162.52980696 128.75325479 -161.35546875 130.84765625 C-160.78103027 131.87262207 -160.2065918 132.89758789 -159.61474609 133.95361328 C-157.51900148 137.66410155 -155.36496268 141.337057 -153.1875 145 C-146.5362276 156.21029442 -140.12173004 167.55856218 -133.66894531 178.88378906 C-131.78206103 182.19494527 -129.89185376 185.50418138 -128 188.8125 C-123.4780881 182.29905617 -119.46598593 175.55753156 -115.56808472 168.65545654 C-114.17492545 166.18877275 -112.77420869 163.72640715 -111.37397766 161.26373291 C-110.64924366 159.98899368 -109.92486964 158.71404973 -109.20085144 157.43890381 C-105.64138571 151.17207699 -102.04348053 144.92766695 -98.4375 138.6875 C-97.51735107 137.0945813 -97.51735107 137.0945813 -96.57861328 135.46948242 C-95.34030467 133.32593089 -94.10186101 131.18245737 -92.86328125 129.0390625 C-90.9796495 125.77725993 -89.09877679 122.51388156 -87.21875 119.25 C-81.19560261 108.79537049 -75.15477555 98.35201558 -69.0625 87.9375 C-63.64215502 78.66983917 -58.30059615 69.35890471 -52.98480225 60.03109741 C-47.6969977 50.754731 -42.3616581 41.50735635 -36.95507812 32.29956055 C-34.2248397 27.64721222 -31.5233364 22.98397441 -28.89453125 18.2734375 C-28.4044458 17.40275635 -27.91436035 16.5320752 -27.40942383 15.63500977 C-26.50473993 14.02387948 -25.60920542 12.40755774 -24.7253418 10.78491211 C-19.31117252 1.18956727 -11.14415713 -4.22027252 0 0 Z " fill="#FEFEFE" transform="translate(606,338.1875)"/>
</svg>
